<svg xmlns="http://www.w3.org/2000/svg" viewBox="0 0 512 512">
  <defs>
    <linearGradient id="bg" x1="0" y1="0" x2="1" y2="1">
      <stop offset="0" stop-color="#14b8a6"/>
      <stop offset="1" stop-color="#0f766e"/>
    </linearGradient>
  </defs>
  <rect width="512" height="512" rx="110" fill="url(#bg)"/>
  <path
    d="M256 88c-84.3 0-152.7 68.4-152.7 152.7 0 120.9 152.7 270.6 152.7 270.6S408.7 361.6 408.7 240.7C408.7 156.4 340.3 88 256 88z"
    fill="#ffffff"
  />
  <path
    d="M256 169c-38.7 0-70 31.3-70 70s31.3 70 70 70 70-31.3 70-70-31.3-70-70-70zm25.7 108.5h-11.1v20.8h-29.2v-20.8h-12.4c-11.7 0-21.2-9.5-21.2-21.2v-56.8h29.2v49h14.4v-49h29.2v49h7.1v-49h29.2v56.8c0 11.7-9.5 21.2-21.2 21.2z"
    fill="#0f766e"
  />
</svg>
